<?xml version="1.0" standalone="no"?>
<svg version="1.0" xmlns="http://www.w3.org/2000/svg"
 width="512.000000pt" height="512.000000pt" viewBox="0 0 512.000000 512.000000"
 preserveAspectRatio="xMidYMid meet">
<metadata>
Created by potrace 1.16, written by Peter Selinger 2001-2019
</metadata>
<g transform="translate(0.000000,512.000000) scale(0.100000,-0.100000)"
fill="#FFFFFF" stroke="none">
<path d="M1440 4880 l0 -80 80 0 80 0 0 -160 0 -160 -80 0 -80 0 0 80 0 80
-80 0 -80 0 0 -80 0 -80 -80 0 -80 0 0 80 0 80 -80 0 -80 0 0 -160 0 -160 80
0 80 0 0 -160 0 -160 80 0 80 0 0 -240 0 -240 -80 0 -80 0 0 -80 0 -80 -160 0
-160 0 0 -80 0 -80 160 0 160 0 0 -320 0 -320 -160 0 -160 0 0 80 0 80 -240 0
-240 0 0 80 0 80 -160 0 -160 0 0 -1040 0 -1040 160 0 160 0 0 80 0 80 240 0
240 0 0 80 0 80 80 0 80 0 0 -160 0 -160 -80 0 -80 0 0 -240 0 -240 -80 0 -80
0 0 -160 0 -160 1040 0 1040 0 0 160 0 160 -80 0 -80 0 0 240 0 240 -80 0 -80
0 0 240 0 240 400 0 400 0 0 -160 0 -160 80 0 80 0 0 160 0 160 80 0 80 0 0
80 0 80 240 0 240 0 0 -80 0 -80 160 0 160 0 0 -80 0 -80 160 0 160 0 0 80 0
80 -80 0 -80 0 0 80 0 80 80 0 80 0 0 80 0 80 -80 0 -80 0 0 80 0 80 160 0
160 0 0 -80 0 -80 80 0 80 0 0 80 0 80 80 0 80 0 0 80 0 80 -80 0 -80 0 0 80
0 80 -80 0 -80 0 0 -80 0 -80 -160 0 -160 0 0 80 0 80 80 0 80 0 0 80 0 80
-80 0 -80 0 0 80 0 80 80 0 80 0 0 80 0 80 -160 0 -160 0 0 -80 0 -80 -160 0
-160 0 0 -80 0 -80 -240 0 -240 0 0 80 0 80 -80 0 -80 0 0 160 0 160 -80 0
-80 0 0 -160 0 -160 -480 0 -480 0 0 400 0 400 160 0 160 0 0 80 0 80 -160 0
-160 0 0 80 0 80 -80 0 -80 0 0 240 0 240 80 0 80 0 0 160 0 160 80 0 80 0 0
160 0 160 -80 0 -80 0 0 -80 0 -80 -80 0 -80 0 0 80 0 80 -80 0 -80 0 0 -80 0
-80 -80 0 -80 0 0 160 0 160 80 0 80 0 0 80 0 80 -80 0 -80 0 0 -80 0 -80 -80
0 -80 0 0 80 0 80 -80 0 -80 0 0 -80z m-960 -2400 l0 -80 80 0 80 0 0 -80 0
-80 80 0 80 0 0 80 0 80 80 0 80 0 0 -80 0 -80 80 0 80 0 0 -80 0 -80 -80 0
-80 0 0 -80 0 -80 80 0 80 0 0 -80 0 -80 -80 0 -80 0 0 -80 0 -80 80 0 80 0 0
-80 0 -80 -80 0 -80 0 0 -80 0 -80 -80 0 -80 0 0 80 0 80 -80 0 -80 0 0 -80 0
-80 -80 0 -80 0 0 -80 0 -80 -80 0 -80 0 0 80 0 80 -80 0 -80 0 0 80 0 80 80
0 80 0 0 80 0 80 -80 0 -80 0 0 80 0 80 80 0 80 0 0 80 0 80 -80 0 -80 0 0 80
0 80 80 0 80 0 0 80 0 80 -80 0 -80 0 0 80 0 80 80 0 80 0 0 80 0 80 80 0 80
0 0 -80z m1920 -320 l0 -80 80 0 80 0 0 80 0 80 80 0 80 0 0 -80 0 -80 80 0
80 0 0 80 0 80 80 0 80 0 0 -80 0 -80 -80 0 -80 0 0 -80 0 -80 80 0 80 0 0
-80 0 -80 -80 0 -80 0 0 -80 0 -80 80 0 80 0 0 -80 0 -80 -80 0 -80 0 0 80 0
80 -80 0 -80 0 0 -80 0 -80 -80 0 -80 0 0 80 0 80 -80 0 -80 0 0 -80 0 -80
-80 0 -80 0 0 80 0 80 80 0 80 0 0 80 0 80 -80 0 -80 0 0 80 0 80 80 0 80 0 0
80 0 80 -80 0 -80 0 0 80 0 80 80 0 80 0 0 -80z m960 0 l0 -80 400 0 400 0 0
80 0 80 80 0 80 0 0 -400 0 -400 -80 0 -80 0 0 80 0 80 -400 0 -400 0 0 -80 0
-80 -80 0 -80 0 0 400 0 400 80 0 80 0 0 -80z"/>
<path d="M320 2320 l0 -80 80 0 80 0 0 -80 0 -80 -80 0 -80 0 0 -80 0 -80 80
0 80 0 0 -80 0 -80 -80 0 -80 0 0 -80 0 -80 80 0 80 0 0 -80 0 -80 -80 0 -80
0 0 -80 0 -80 80 0 80 0 0 80 0 80 80 0 80 0 0 80 0 80 80 0 80 0 0 -80 0 -80
80 0 80 0 0 80 0 80 -80 0 -80 0 0 80 0 80 80 0 80 0 0 80 0 80 -80 0 -80 0 0
80 0 80 80 0 80 0 0 80 0 80 -80 0 -80 0 0 -80 0 -80 -80 0 -80 0 0 80 0 80
-80 0 -80 0 0 80 0 80 -80 0 -80 0 0 -80z m320 -320 l0 -80 80 0 80 0 0 -80 0
-80 -80 0 -80 0 0 -80 0 -80 -80 0 -80 0 0 80 0 80 80 0 80 0 0 80 0 80 -80 0
-80 0 0 80 0 80 80 0 80 0 0 -80z"/>
<path d="M2560 2000 l0 -80 -80 0 -80 0 0 -80 0 -80 80 0 80 0 0 -80 0 -80 80
0 80 0 0 80 0 80 80 0 80 0 0 80 0 80 -80 0 -80 0 0 80 0 80 -80 0 -80 0 0
-80z m160 -160 l0 -80 -80 0 -80 0 0 80 0 80 80 0 80 0 0 -80z"/>
</g>
</svg>
