<?xml version="1.0" standalone="no"?>
<svg version="1.0" xmlns="http://www.w3.org/2000/svg"
 width="512.000000pt" height="512.000000pt" viewBox="0 0 512.000000 512.000000"
 preserveAspectRatio="xMidYMid meet">
<metadata>
Created by potrace 1.16, written by Peter Selinger 2001-2019
</metadata>
<g transform="translate(0.000000,512.000000) scale(0.100000,-0.100000)"
fill="#FFFFFF" stroke="none">
<path d="M1440 4880 l0 -80 80 0 80 0 0 -160 0 -160 -80 0 -80 0 0 80 0 80
-80 0 -80 0 0 -80 0 -80 -80 0 -80 0 0 80 0 80 -80 0 -80 0 0 -160 0 -160 80
0 80 0 0 -160 0 -160 80 0 80 0 0 -240 0 -240 -80 0 -80 0 0 -80 0 -80 -160 0
-160 0 0 -80 0 -80 160 0 160 0 0 -320 0 -320 -160 0 -160 0 0 80 0 80 -240 0
-240 0 0 80 0 80 -160 0 -160 0 0 -1040 0 -1040 160 0 160 0 0 80 0 80 240 0
240 0 0 80 0 80 80 0 80 0 0 -160 0 -160 -80 0 -80 0 0 -240 0 -240 -80 0 -80
0 0 -160 0 -160 1040 0 1040 0 0 160 0 160 -80 0 -80 0 0 240 0 240 -80 0 -80
0 0 240 0 240 400 0 400 0 0 -160 0 -160 80 0 80 0 0 160 0 160 80 0 80 0 0
80 0 80 240 0 240 0 0 -80 0 -80 160 0 160 0 0 -80 0 -80 160 0 160 0 0 80 0
80 -80 0 -80 0 0 80 0 80 80 0 80 0 0 80 0 80 -80 0 -80 0 0 80 0 80 160 0
160 0 0 -80 0 -80 80 0 80 0 0 80 0 80 80 0 80 0 0 80 0 80 -80 0 -80 0 0 80
0 80 -80 0 -80 0 0 -80 0 -80 -160 0 -160 0 0 80 0 80 80 0 80 0 0 80 0 80
-80 0 -80 0 0 80 0 80 80 0 80 0 0 80 0 80 -160 0 -160 0 0 -80 0 -80 -160 0
-160 0 0 -80 0 -80 -240 0 -240 0 0 80 0 80 -80 0 -80 0 0 160 0 160 -80 0
-80 0 0 -160 0 -160 -480 0 -480 0 0 400 0 400 160 0 160 0 0 80 0 80 -160 0
-160 0 0 80 0 80 -80 0 -80 0 0 240 0 240 80 0 80 0 0 160 0 160 80 0 80 0 0
160 0 160 -80 0 -80 0 0 -80 0 -80 -80 0 -80 0 0 80 0 80 -80 0 -80 0 0 -80 0
-80 -80 0 -80 0 0 160 0 160 80 0 80 0 0 80 0 80 -80 0 -80 0 0 -80 0 -80 -80
0 -80 0 0 80 0 80 -80 0 -80 0 0 -80z m-960 -2400 l0 -80 80 0 80 0 0 -80 0
-80 80 0 80 0 0 80 0 80 80 0 80 0 0 -80 0 -80 80 0 80 0 0 -80 0 -80 -80 0
-80 0 0 -80 0 -80 80 0 80 0 0 -80 0 -80 -80 0 -80 0 0 -80 0 -80 80 0 80 0 0
-80 0 -80 -80 0 -80 0 0 -80 0 -80 -80 0 -80 0 0 80 0 80 -80 0 -80 0 0 -80 0
-80 -80 0 -80 0 0 -80 0 -80 -80 0 -80 0 0 80 0 80 -80 0 -80 0 0 80 0 80 80
0 80 0 0 80 0 80 -80 0 -80 0 0 80 0 80 80 0 80 0 0 80 0 80 -80 0 -80 0 0 80
0 80 80 0 80 0 0 80 0 80 -80 0 -80 0 0 80 0 80 80 0 80 0 0 80 0 80 80 0 80
0 0 -80z m1920 -320 l0 -80 80 0 80 0 0 80 0 80 80 0 80 0 0 -80 0 -80 80 0
80 0 0 80 0 80 80 0 80 0 0 -80 0 -80 -80 0 -80 0 0 -80 0 -80 80 0 80 0 0
-80 0 -80 -80 0 -80 0 0 -80 0 -80 80 0 80 0 0 -80 0 -80 -80 0 -80 0 0 80 0
80 -80 0 -80 0 0 -80 0 -80 -80 0 -80 0 0 80 0 80 -80 0 -80 0 0 -80 0 -80
-80 0 -80 0 0 80 0 80 80 0 80 0 0 80 0 80 -80 0 -80 0 0 80 0 80 80 0 80 0 0
80 0 80 -80 0 -80 0 0 80 0 80 80 0 80 0 0 -80z m960 0 l0 -80 400 0 400 0 0
80 0 80 80 0 80 0 0 -400 0 -400 -80 0 -80 0 0 80 0 80 -400 0 -400 0 0 -80 0
-80 -80 0 -80 0 0 400 0 400 80 0 80 0 0 -80z"/>
<path d="M320 2320 l0 -80 80 0 80 0 0 -80 0 -80 -80 0 -80 0 0 -80 0 -80 80
0 80 0 0 -80 0 -80 -80 0 -80 0 0 -80 0 -80 80 0 80 0 0 -80 0 -80 -80 0 -80
0 0 -80 0 -80 80 0 80 0 0 80 0 80 80 0 80 0 0 80 0 80 80 0 80 0 0 -80 0 -80
80 0 80 0 0 80 0 80 -80 0 -80 0 0 80 0 80 80 0 80 0 0 80 0 80 -80 0 -80 0 0
80 0 80 80 0 80 0 0 80 0 80 -80 0 -80 0 0 -80 0 -80 -80 0 -80 0 0 80 0 80
-80 0 -80 0 0 80 0 80 -80 0 -80 0 0 -80z m320 -320 l0 -80 80 0 80 0 0 -80 0
-80 -80 0 -80 0 0 -80 0 -80 -80 0 -80 0 0 80 0 80 80 0 80 0 0 80 0 80 -80 0
-80 0 0 80 0 80 80 0 80 0 0 -80z"/>
<path d="M2560 2000 l0 -80 -80 0 -80 0 0 -80 0 -80 80 0 80 0 0 -80 0 -80 80
0 80 0 0 80 0 80 80 0 80 0 0 80 0 80 -80 0 -80 0 0 80 0 80 -80 0 -80 0 0
-80z m160 -160 l0 -80 -80 0 -80 0 0 80 0 80 80 0 80 0 0 -80z"/>
<path d="M3715 4833 c-92 -49 -405 -230 -432 -250 -38 -28 -43 -64 -13 -90 30
-26 481 -283 496 -283 8 0 23 9 34 20 17 17 20 33 20 116 l0 95 48 -7 c188
-27 368 -157 452 -326 122 -249 81 -517 -110 -709 -123 -123 -261 -181 -430
-182 -344 0 -614 269 -613 613 1 96 23 194 59 259 26 47 29 61 15 61 -5 0 -56
27 -113 60 l-103 59 -22 -36 c-12 -20 -36 -79 -54 -132 -30 -88 -33 -109 -37
-247 -3 -129 -1 -163 16 -233 77 -304 307 -541 617 -637 49 -15 93 -19 235
-19 173 0 176 0 272 34 263 91 460 286 555 552 24 67 27 91 31 250 3 158 2
185 -18 255 -24 89 -83 214 -135 283 -92 126 -249 246 -395 304 -67 26 -199
57 -245 57 -24 0 -25 2 -25 59 0 87 -34 112 -105 74z"/>
</g>
</svg>
